<svg width="1005" height="804" viewBox="0 0 1005 804" fill="none" xmlns="http://www.w3.org/2000/svg">
<path d="M990.047 384.437C1045.53 657.939 957.144 813.14 464.99 803.121C-27.165 793.103 -47.5444 525.526 40.4591 297.191C128.463 68.8568 254.312 -146.043 464.99 130.301C549.808 -154.251 949.234 183.248 990.047 384.437Z" fill="#2CD8F6"/>
<path d="M823.584 567.116C823.584 654.122 624.075 815.187 418.698 567.116C270.926 735.039 107.585 654.122 107.585 567.116C107.585 480.11 212.852 436.991 402.27 436.991C591.689 436.991 823.584 480.11 823.584 567.116Z" fill="white"/>
<path d="M508.045 401.817C563.319 399.513 466.049 544.041 429.564 544.041C393.079 544.041 307.663 401.817 346.106 401.817C384.548 401.817 487.138 402.688 508.045 401.817Z" fill="#EA808C"/>
<path d="M74.5386 472.915L144.279 481.353L210.707 490.847" stroke="black" stroke-width="16" stroke-linecap="round"/>
<path d="M70.9153 529.291L140.656 537.729L207.084 547.223" stroke="black" stroke-width="16" stroke-linecap="round"/>
<path d="M64.5732 585.667L134.314 594.104L200.742 603.598" stroke="black" stroke-width="16" stroke-linecap="round"/>
<path d="M900.719 469.734L795.526 478.171L695.33 487.665" stroke="black" stroke-width="16" stroke-linecap="round"/>
<path d="M906.184 526.11L800.992 534.547L700.795 544.041" stroke="black" stroke-width="16" stroke-linecap="round"/>
<path d="M915.751 582.485L810.558 590.923L710.362 600.417" stroke="black" stroke-width="16" stroke-linecap="round"/>
</svg>
